PathFileType	4	(X/Y/Z)	/Users/itak/Documents/Research/Walk-IL/dataset/trc/00121_00007.trc
DataRate	CameraRate	NumFrames	NumMarkers	Units	OrigDataRate	OrigDataStartFrame	OrigNumFrames
100.000000	100.000000	4	53	mm	100.000000	541	722
Frame#	Time	RPSI			LPSI			L3			STRN			T10			C7			CLAV			RBAK			LBAK			LSHO			LUPA			LAEL			LAOL			LWTS			LWPS			LFRA			LIFD			LHPS			LHTS			RSHO			RUPA			RAEL			RAOL			RWTS			RWPS			RFRA			RIFD			RHTS			RHPS			RBHD			LFHD			RFHD			LBHD			LHIP			RHIP			RASI			LASI			LKNE			LTHI			LANK			LTIP			LTOE			LMT1			LMT5			LHEE			RKNE			RTHI			RANK			RTIP			RTOE			RMT1			RMT5			RHEE			
		X1	Y1	Z1	X2	Y2	Z2	X3	Y3	Z3	X4	Y4	Z4	X5	Y5	Z5	X6	Y6	Z6	X7	Y7	Z7	X8	Y8	Z8	X9	Y9	Z9	X10	Y10	Z10	X11	Y11	Z11	X12	Y12	Z12	X13	Y13	Z13	X14	Y14	Z14	X15	Y15	Z15	X16	Y16	Z16	X17	Y17	Z17	X18	Y18	Z18	X19	Y19	Z19	X20	Y20	Z20	X21	Y21	Z21	X22	Y22	Z22	X23	Y23	Z23	X24	Y24	Z24	X25	Y25	Z25	X26	Y26	Z26	X27	Y27	Z27	X28	Y28	Z28	X29	Y29	Z29	X30	Y30	Z30	X31	Y31	Z31	X32	Y32	Z32	X33	Y33	Z33	X34	Y34	Z34	X35	Y35	Z35	X36	Y36	Z36	X37	Y37	Z37	X38	Y38	Z38	X39	Y39	Z39	X40	Y40	Z40	X41	Y41	Z41	X42	Y42	Z42	X43	Y43	Z43	X44	Y44	Z44	X45	Y45	Z45	X46	Y46	Z46	X47	Y47	Z47	X48	Y48	Z48	X49	Y49	Z49	X50	Y50	Z50	X51	Y51	Z51	X52	Y52	Z52	X53	Y53	Z53	

542	5.41	-750.814697265625	1114.92041015625	74.77264404296875	-618.8038330078125	1114.699096679688	50.36905670166016	-681.1243896484375	1151.341064453125	54.10261535644531	-632.8462524414062	1353.71484375	266.1632690429688	-674.6345825195312	1303.573364257812	16.5765438079834	-632.473876953125	1595.424194335938	43.32804107666016	-627.3109130859375	1487.922973632812	227.4255981445312	-738.4971313476562	1415.587036132812	4.021491527557373	-535.0452270507812	1565.917846679688	24.2163257598877	-459.3796691894531	1550.065551757812	101.8452301025391	-397.5106201171875	1415.948852539062	82.09478759765625	-376.1162109375	1200.584594726562	124.2592468261719	-437.6177368164062	1175.101684570312	65.60085296630859	-422.0151062011719	1009.226257324219	316.373046875	-404.4482116699219	948.4305419921875	253.0054931640625	-375.2127990722656	1097.60791015625	179.098876953125	-449.2128601074219	847.2365112304688	415.2733459472656	-403.1300354003906	894.7017211914062	313.0849914550781	-411.6644592285156	936.4635009765625	368.7658081054688	-807.40625	1589.206665039062	121.078857421875	-876.4198608398438	1520.675659179688	109.8208541870117	-923.956298828125	1231.02587890625	89.25950622558594	-828.3565673828125	1221.441772460938	75.30359649658203	-921.1904907226562	983.1859741210938	226.3773345947266	-959.1012573242188	971.5200805664062	152.6244049072266	-943.9685668945312	1158.558349609375	112.4197769165039	-913.79541015625	787.1370239257812	241.656982421875	-933.2844848632812	873.9622802734375	252.3529052734375	-967.4129638671875	870.8226318359375	187.1223297119141	-679.8389892578125	1789.64111328125	139.638671875	-498.3819885253906	1788.113159179688	265.3043518066406	-618.6381225585938	1813.6474609375	306.5494689941406	-556.1111450195312	1769.087036132812	91.63713836669922	-496.8198852539062	1023.725891113281	121.7023315429688	-842.79150390625	1032.318481445312	231.6016082763672	-772.509765625	1104.06787109375	292.8197937011719	-512.6588745117188	1088.482666015625	236.8493957519531	-594.9120483398438	523.68603515625	147.4283142089844	-549.8218994140625	666.6453857421875	123.5862350463867	-701.8687133789062	39.36800765991211	25.01187133789062	-627.8789672851562	280.4974975585938	37.89567184448242	-733.1519165039062	33.05874633789062	260.4489440917969	-776.8568725585938	41.14831924438477	181.8639678955078	-665.7203369140625	39.39459609985352	147.7055358886719	-769.6129150390625	46.39565658569336	-37.54091262817383	-793.6345825195312	570.493896484375	397.6472473144531	-832.131103515625	837.4794921875	317.2060546875	-876.9892578125	54.02944183349609	303.4146423339844	-828.994140625	436.9298095703125	381.0011901855469	-802.5781860351562	73.00528717041016	519.9523315429688	-765.4361572265625	58.26862335205078	461.2564697265625	-884.8883666992188	55.25665664672852	435.8746337890625	-836.3014526367188	56.73895645141602	240.8712768554688	
543	5.42	-751.1246948242188	1114.00048828125	84.64532470703125	-619.6716918945312	1113.93115234375	57.86075592041016	-682.100341796875	1150.460815429688	62.57356643676758	-630.568359375	1352.77587890625	273.8365173339844	-676.0927124023438	1302.710693359375	25.05384254455566	-633.7286987304688	1594.468017578125	51.32613372802734	-625.7340087890625	1487.067993164062	235.21630859375	-740.122314453125	1414.567626953125	13.53006744384766	-536.5317993164062	1565.1650390625	30.74235343933105	-459.7080383300781	1549.409912109375	107.2452850341797	-398.0003967285156	1415.281372070312	86.82666778564453	-376.1798400878906	1199.905029296875	129.6284637451172	-438.2315673828125	1174.306396484375	71.63304901123047	-420.3087158203125	1009.1025390625	322.7295837402344	-403.4122619628906	948.107177734375	259.3411560058594	-374.7833557128906	1097.053344726562	184.7236785888672	-446.6918029785156	847.4566650390625	422.3889770507812	-401.5592041015625	894.5518188476562	319.5863647460938	-409.5060424804688	936.5126342773438	375.2353210449219	-807.479736328125	1588.076782226562	131.5933990478516	-876.42431640625	1519.277709960938	121.3911361694336	-924.258056640625	1229.861572265625	101.4951629638672	-828.8804931640625	1220.286254882812	86.17424011230469	-919.5750122070312	981.9618530273438	238.3892211914062	-958.4219970703125	970.3070068359375	165.1619567871094	-944.0166625976562	1157.403686523438	124.8540191650391	-912.004150390625	785.8947143554688	253.3374481201172	-931.2988891601562	872.6857299804688	264.4522094726562	-966.3172607421875	869.614013671875	199.6837615966797	-679.811279296875	1788.726196289062	148.0437927246094	-497.2123413085938	1787.277465820312	271.9999389648438	-617.0808715820312	1812.684936523438	314.3340759277344	-556.53466796875	1768.273559570312	98.86251831054688	-496.1566467285156	1023.1171875	126.9966430664062	-840.6664428710938	1031.3466796875	242.8943634033203	-769.2026977539062	1102.991821289062	303.0619506835938	-510.3245239257812	1087.691528320312	242.5198822021484	-594.0602416992188	522.9859008789062	152.3149871826172	-549.1411743164062	666.122314453125	128.7530364990234	-702.2705078125	39.8595085144043	25.13037109375	-627.9702758789062	280.580322265625	40.59767913818359	-733.0179443359375	32.90463638305664	260.5846862792969	-776.8120727539062	41.05220413208008	182.0394287109375	-665.9094848632812	39.49635696411133	147.7811889648438	-770.2395629882812	47.15903854370117	-37.31338882446289	-788.77490234375	570.4627075195312	409.3736267089844	-828.7943115234375	836.9244384765625	328.5262756347656	-866.9850463867188	49.87981414794922	337.3424987792969	-822.6902465820312	436.1935424804688	398.6127624511719	-785.2933349609375	77.44563293457031	550.3724365234375	-750.0530395507812	61.18198776245117	490.8880004882812	-870.3034057617188	55.61966705322266	469.8599243164062	-828.5147094726562	51.14253616333008	273.2994689941406	
544	5.43	-751.3781127929688	1112.939086914062	94.49525451660156	-620.4505004882812	1113.058715820312	65.43097686767578	-682.9954223632812	1149.474853515625	71.08187866210938	-628.2991333007812	1351.725341796875	281.50048828125	-677.503173828125	1301.745361328125	33.57950973510742	-634.9935913085938	1593.3896484375	59.42473983764648	-624.1481323242188	1486.095092773438	243.0126342773438	-741.7188720703125	1413.455810546875	23.07238960266113	-538.0220336914062	1564.307983398438	37.34220504760742	-460.0647277832031	1548.63037109375	112.7033157348633	-398.5132446289062	1414.493408203125	91.59715270996094	-376.243896484375	1199.085815429688	134.9853668212891	-438.8099670410156	1173.414184570312	77.59771728515625	-418.6360168457031	1008.57373046875	328.7857971191406	-402.3539123535156	947.4688110351562	265.3055419921875	-374.3651428222656	1096.292724609375	190.2046813964844	-444.2135620117188	847.1111450195312	428.9447021484375	-399.9809875488281	894.0048217773438	325.6349182128906	-407.3822631835938	936.07666015625	381.3042907714844	-807.4943237304688	1586.848266601562	142.1354522705078	-876.3991088867188	1517.796875	132.9887237548828	-924.4977416992188	1228.58740234375	113.7643356323242	-829.39794921875	1219.024658203125	97.06481170654297	-917.912841796875	980.6901245117188	250.5068511962891	-957.6912231445312	969.00927734375	177.8053131103516	-943.9998779296875	1156.142822265625	137.3410949707031	-910.202880859375	784.6283569335938	265.2612609863281	-929.2833862304688	871.3898315429688	276.7269592285156	-965.16015625	868.3424072265625	212.42578125	-679.779296875	1787.68798828125	156.5000610351562	-496.0283813476562	1786.376220703125	278.6956481933594	-615.4945678710938	1811.660400390625	322.1448364257812	-556.9825439453125	1767.332763671875	106.1256484985352	-495.4393310546875	1022.459838867188	132.4164733886719	-838.4613037109375	1030.18798828125	254.0519866943359	-765.8671875	1101.7841796875	313.3047485351562	-508.029541015625	1086.834350585938	248.2608489990234	-593.14794921875	522.2549438476562	157.2869262695312	-548.384033203125	665.5689086914062	134.0711822509766	-702.6453247070312	40.39602279663086	25.26885032653809	-628.0025024414062	280.6533813476562	43.34457397460938	-732.8475341796875	32.75640487670898	260.7634582519531	-776.753662109375	40.97425842285156	182.2431640625	-666.0650634765625	39.62052154541016	147.8714447021484	-770.8347778320312	48.01601409912109	-37.07589340209961	-784.1348876953125	570.1734008789062	420.7196960449219	-825.40283203125	836.1698608398438	339.566162109375	-855.9959106445312	46.38904571533203	370.6490478515625	-816.3131103515625	435.44189453125	415.8018798828125	-767.3866577148438	82.321533203125	579.6477661132812	-734.005859375	64.57589721679688	519.4561767578125	-854.8963012695312	56.52341461181641	502.8429260253906	-819.7943725585938	46.27376174926758	305.2003479003906	
545	5.44	-751.5609741210938	1111.743896484375	104.3358688354492	-621.1233520507812	1112.089965820312	73.10380554199219	-683.7544555664062	1148.38427734375	79.67369842529297	-626.0361938476562	1350.577026367188	289.1767272949219	-678.8363647460938	1300.668334960938	42.1700439453125	-636.260986328125	1592.204467773438	67.60836791992188	-622.5589599609375	1485.007446289062	250.8126068115234	-743.2817993164062	1412.250732421875	32.64949798583984	-539.5103759765625	1563.346801757812	44.01197814941406	-460.4498291015625	1547.73046875	118.2151794433594	-399.0630187988281	1413.58642578125	96.41731262207031	-376.3083190917969	1198.138549804688	140.3346099853516	-439.3633422851562	1172.429931640625	83.51000213623047	-416.9922485351562	1007.64453125	334.5541687011719	-401.2798767089844	946.5220336914062	270.9098205566406	-373.9603881835938	1095.33203125	195.5474853515625	-441.7744445800781	846.1919555664062	434.9461059570312	-398.4020385742188	893.0631103515625	331.2339172363281	-405.2936706542969	935.1495971679688	386.9806213378906	-807.4490356445312	1585.529052734375	152.6945190429688	-876.3560180664062	1516.260986328125	144.60498046875	-924.67822265625	1227.211181640625	126.0720672607422	-829.8984985351562	1217.66162109375	107.9836730957031	-916.1915283203125	979.3703002929688	262.7300415039062	-956.9081420898438	967.6343994140625	190.5543823242188	-943.907470703125	1154.780883789062	149.8880920410156	-908.364501953125	783.3364868164062	277.4090881347656	-927.2238159179688	870.0759887695312	289.1663208007812	-963.9315185546875	867.0114135742188	225.3417816162109	-679.7394409179688	1786.537475585938	165.0116271972656	-494.8269348144531	1785.399169921875	285.3956298828125	-613.8785400390625	1810.56591796875	329.9892578125	-557.4570922851562	1766.27685546875	113.4340972900391	-494.6738586425781	1021.76220703125	137.9983367919922	-836.1875610351562	1028.864379882812	265.0974426269531	-762.5286865234375	1100.461303710938	323.5414428710938	-505.7767333984375	1085.923095703125	254.1096496582031	-592.1447143554688	521.494384765625	162.3002166748047	-547.53515625	664.9928588867188	139.4795684814453	-702.984619140625	40.96409225463867	25.41799926757812	-627.9445190429688	280.7341003417969	46.10197830200195	-732.655517578125	32.61832046508789	260.9650268554688	-776.6859741210938	40.91660308837891	182.4566497802734	-666.1753540039062	39.75596237182617	147.9658508300781	-771.369140625	48.96145248413086	-36.83830261230469	-779.7163696289062	569.633544921875	431.71826171875	-821.944091796875	835.2161865234375	350.3161315917969	-844.0828247070312	43.58008193969727	403.2283630371094	-809.903564453125	434.6944580078125	432.535888671875	-749.00390625	87.66400146484375	607.7412719726562	-717.4346313476562	68.47411346435547	546.93115234375	-838.763916015625	57.99115753173828	534.7562866210938	-810.1712646484375	42.14081954956055	336.480224609375	
